M48
; DRILL file {KiCad 7.0.5} date mar 6 giu 2023, 17:40:10
; FORMAT={-:-/ absolute / inch / decimal}
; #@! TF.CreationDate,2023-06-06T17:40:10+02:00
; #@! TF.GenerationSoftware,Kicad,Pcbnew,7.0.5
; #@! TF.FileFunction,Plated,1,2,PTH
FMAT,2
INCH
; #@! TA.AperFunction,Plated,PTH,ViaDrill
T1C0.0118
; #@! TA.AperFunction,Plated,PTH,ComponentDrill
T2C0.0315
; #@! TA.AperFunction,Plated,PTH,ComponentDrill
T3C0.0354
; #@! TA.AperFunction,Plated,PTH,ComponentDrill
T4C0.0394
; #@! TA.AperFunction,Plated,PTH,ComponentDrill
T5C0.0400
%
G90
G05
T1
X2.5Y-2.5
X2.5Y-3.0
X2.5Y-3.5
X2.5Y-4.0
X2.5Y-5.5
X3.0Y-2.0
X3.0Y-3.0
X3.0Y-3.5
X3.0Y-4.0
X3.0Y-5.5
X3.0Y-6.0
X3.5Y-2.5
X3.5Y-3.0
X3.5Y-3.5
X3.5Y-4.0
X3.5Y-4.5
X3.5Y-5.0
X3.5Y-5.5
X3.5Y-6.0
X3.6122Y-2.8543
X3.6614Y-2.5984
X3.6614Y-2.8543
X3.7071Y-2.5949
X3.7078Y-2.8519
X3.7598Y-2.5984
X3.7598Y-2.8543
X3.8091Y-2.5984
X4.0Y-2.0
X4.0Y-2.5
X4.0Y-3.0
X4.0Y-4.0
X4.0Y-4.5
X4.0Y-5.0
X4.0Y-5.5
X4.0Y-6.0
X4.5Y-3.0
X4.5Y-3.5
X4.5Y-4.0
X4.5Y-4.5
X4.5Y-5.5
X4.5Y-6.0
X4.7638Y-2.3228
X4.7638Y-3.1201
X4.813Y-3.1299
X4.8592Y-3.1239
X4.872Y-3.0807
X4.872Y-3.2283
X4.9219Y-3.2323
X4.9705Y-3.2283
X4.9705Y-3.3366
X4.971Y-3.1823
X5.0Y-3.5
X5.0Y-3.8189
X5.0Y-4.5
X5.0Y-5.0
X5.0Y-6.0
X5.0197Y-3.3366
X5.0689Y-3.3268
X5.0689Y-3.435
X5.0699Y-3.2824
X5.1181Y-3.4323
X5.1673Y-3.3823
X5.1673Y-3.4252
X5.1969Y-2.4803
X5.5Y-2.0
X5.5Y-5.0
X5.5Y-6.0
X5.8071Y-2.7461
X5.8465Y-3.8386
X5.8563Y-2.7461
X5.8957Y-3.8386
X5.9055Y-2.3228
X5.9449Y-4.2126
X6.0Y-3.5
X6.0Y-5.0
X6.0Y-5.5
X6.0Y-6.0
X6.1811Y-4.7638
X6.378Y-2.3228
X6.5Y-2.0
X6.5Y-3.5
X6.5Y-4.0
X6.5Y-6.0
X6.8504Y-5.1181
X7.0Y-2.5
X7.0Y-3.5
X7.2441Y-4.7244
X7.5Y-2.5
X7.5Y-3.5
X7.5Y-4.0
X7.5Y-5.0
X7.5Y-5.5
X7.7362Y-2.7461
X7.7362Y-3.061
X7.7854Y-2.7461
X7.7854Y-3.061
X7.874Y-2.5886
X7.9064Y-2.5499
X7.9724Y-2.6378
X8.0Y-2.0
X8.0Y-3.5
X8.0Y-4.0
X8.0072Y-2.5978
X8.0709Y-2.687
X8.1064Y-2.6492
X8.1594Y-2.6969
X8.2072Y-2.6956
X8.4646Y-2.3622
X8.5Y-3.5
X8.5Y-4.0
X8.5Y-5.0
X8.5039Y-4.7638
X9.0Y-2.0
X9.0Y-2.5
X9.0Y-3.5
X9.0Y-4.0
X9.0Y-5.0
X9.0Y-5.5
X9.0Y-6.0
T2
X3.1102Y-2.0079
X3.5102Y-2.0079
X4.2488Y-3.189
X4.2488Y-3.4646
X4.2488Y-3.7402
X4.3628Y-2.0079
X4.6488Y-3.189
X4.6488Y-3.4646
X4.6488Y-3.7402
X4.7628Y-2.0079
X5.6169Y-2.0079
X6.0169Y-2.0079
X6.8638Y-2.0079
X7.2638Y-2.0079
X7.8346Y-5.3315
X7.8346Y-5.7315
X7.9921Y-5.3315
X7.9921Y-5.7315
X8.1169Y-2.0079
X8.1496Y-5.3315
X8.1496Y-5.7315
X8.3071Y-5.3346
X8.3071Y-5.7346
X8.4646Y-5.3315
X8.4646Y-5.7315
X8.5169Y-2.0079
T3
X3.6106Y-2.0079
X3.7106Y-2.0079
X4.0339Y-3.189
X4.0339Y-3.4646
X4.0339Y-3.7402
X4.1339Y-3.189
X4.1339Y-3.4646
X4.1339Y-3.7402
X4.8606Y-2.0079
X4.9606Y-2.0079
X6.1106Y-2.0079
X6.2106Y-2.0079
X7.3606Y-2.0079
X7.4606Y-2.0079
X8.6122Y-2.0079
X8.7122Y-2.0079
T4
X2.8071Y-2.185
X2.9071Y-2.185
X3.0071Y-2.185
X3.1071Y-2.185
X3.2071Y-2.185
X3.3071Y-2.185
X3.4071Y-2.185
X3.5071Y-2.185
X3.6071Y-2.185
X3.7071Y-2.185
X3.8071Y-2.185
X4.0571Y-2.185
X4.1571Y-2.185
X4.2571Y-2.185
X4.3307Y-4.6165
X4.3307Y-4.7165
X4.3307Y-4.8165
X4.3307Y-4.9165
X4.3307Y-5.0165
X4.3571Y-2.185
X4.4571Y-2.185
X4.5472Y-4.6217
X4.5472Y-4.7165
X4.5472Y-4.8165
X4.5472Y-4.9165
X4.5472Y-5.0165
X4.5571Y-2.185
X4.6571Y-2.185
X4.7571Y-2.185
X4.8571Y-2.185
X4.9571Y-2.185
X5.0571Y-2.185
X5.3071Y-2.185
X5.4071Y-2.185
X5.5071Y-2.185
X5.6071Y-2.185
X5.7071Y-2.185
X5.8071Y-2.185
X5.9071Y-2.185
X6.0071Y-2.185
X6.0541Y-2.7165
X6.1071Y-2.185
X6.1541Y-2.7165
X6.2071Y-2.185
X6.2411Y-5.689
X6.2541Y-2.7165
X6.3071Y-2.185
X6.3411Y-5.689
X6.3541Y-2.7165
X6.4411Y-5.689
X6.4541Y-2.7165
X6.5411Y-5.689
X6.5541Y-2.7165
X6.5571Y-2.185
X6.6411Y-5.689
X6.6541Y-2.7165
X6.6571Y-2.185
X6.7411Y-5.689
X6.7541Y-2.7165
X6.7571Y-2.185
X6.8411Y-5.689
X6.8541Y-2.7165
X6.8571Y-2.185
X6.9411Y-5.689
X6.9541Y-2.7165
X6.9571Y-2.185
X7.0411Y-5.689
X7.0541Y-2.7165
X7.0571Y-2.185
X7.1411Y-5.689
X7.1541Y-2.7165
X7.1571Y-2.185
X7.2411Y-5.689
X7.2541Y-2.7165
X7.2571Y-2.185
X7.3411Y-5.689
X7.3571Y-2.185
X7.4411Y-5.689
X7.4571Y-2.185
X7.5571Y-2.185
X7.8071Y-2.185
X7.9071Y-2.185
X8.0071Y-2.185
X8.1071Y-2.185
X8.2071Y-2.185
X8.3071Y-2.185
X8.4071Y-2.185
X8.5071Y-2.185
X8.6071Y-2.185
X8.7071Y-2.185
X8.8071Y-2.185
T5
X5.6506Y-2.9823
X5.6506Y-3.0823
X5.6506Y-3.1823
X5.6506Y-3.2823
X5.6506Y-3.3823
X5.6506Y-3.4823
X5.6506Y-3.5823
X5.6506Y-3.6823
X5.6506Y-3.7823
X5.6506Y-3.8823
X5.6506Y-3.9823
X5.6506Y-4.0823
X5.6506Y-4.1823
X5.6506Y-4.2823
X5.6506Y-4.3823
X5.6506Y-4.4823
X5.6506Y-4.5823
X5.6506Y-4.6823
X5.7506Y-2.9823
X5.7506Y-3.0823
X5.7506Y-3.1823
X5.7506Y-3.2823
X5.7506Y-3.3823
X5.7506Y-3.4823
X5.7506Y-3.5823
X5.7506Y-3.6823
X5.7506Y-3.7823
X5.7506Y-3.8823
X5.7506Y-3.9823
X5.7506Y-4.0823
X5.7506Y-4.1823
X5.7506Y-4.2823
X5.7506Y-4.3823
X5.7506Y-4.4823
X5.7506Y-4.5823
X5.7506Y-4.6823
X5.8506Y-4.8823
X5.9506Y-4.8823
X6.0506Y-2.9823
X6.0506Y-4.8823
X6.1506Y-2.9823
X6.1506Y-4.8823
X6.2506Y-2.9823
X6.2506Y-4.8823
X6.3506Y-2.9823
X6.3506Y-4.8823
X6.4506Y-2.9823
X6.4506Y-4.8823
X6.5506Y-2.9823
X6.5506Y-4.8823
X6.6506Y-2.9823
X6.7506Y-2.9823
X6.7506Y-4.8823
X6.8456Y-3.7823
X6.8456Y-3.8823
X6.8456Y-3.9823
X6.8506Y-4.8823
X6.9456Y-3.7823
X6.9456Y-3.8823
X6.9456Y-3.9823
X6.9506Y-2.9823
X6.9506Y-4.8823
X7.0506Y-2.9823
X7.0506Y-4.8823
X7.1506Y-2.9823
X7.1506Y-4.8823
X7.2506Y-2.9823
X7.2506Y-4.8823
X7.3506Y-2.9823
X7.3506Y-4.8823
X7.4506Y-2.9823
X7.4506Y-4.8823
X7.5506Y-2.9823
X7.6506Y-2.9823
X7.6506Y-4.8823
X7.7506Y-4.8823
X7.8106Y-2.9823
X7.8506Y-4.8823
X7.9106Y-2.9823
X7.9506Y-4.8823
X8.0106Y-2.9823
X8.0506Y-4.8823
X8.1106Y-2.9823
X8.1506Y-4.8823
X8.2106Y-2.9823
X8.2506Y-4.8823
X8.3106Y-2.9823
X8.3506Y-4.8823
X8.4106Y-2.9823
X8.5106Y-2.9823
X8.6106Y-2.9823
X8.7106Y-2.9823
T0
M30
